<svg xmlns="http://www.w3.org/2000/svg" width="800" height="800" viewBox="0 0 512 512"><path d="M305.933 267.792c-14.997 9.519-32.785 15.034-51.863 15.034-18.019 0-34.886-4.923-49.34-13.488-12.519 14.043-30.746 22.891-51.04 22.891a69.42 69.42 0 01-3.07-.078l10.323 32.245s17.136 53.171 22.482 70.095c5.346 16.923 32.947 28.535 72.577 28.535s67.459-12.557 72.583-28.535l22.473-70.095 10.323-32.245c-1.019.045-2.04.078-3.069.078-21.031 0-39.839-9.498-52.379-24.437zM197.362 397.108c-4.903.629-13.314-22.335-18.792-51.295-5.482-28.957-5.953-52.944-1.051-53.57 4.898-.63 13.309 22.335 18.794 51.295 5.48 28.957 5.948 52.943 1.049 53.57zm40.4 12.085c-4.941.624-11.931-22.344-15.613-51.301-3.688-28.958-2.671-52.946 2.265-53.57 4.941-.63 11.928 22.339 15.618 51.296 3.682 28.959 2.665 52.946-2.27 53.575zm48.329-51.301c-3.689 28.957-10.677 51.925-15.615 51.301-4.939-.629-5.958-24.616-2.268-53.575 3.683-28.957 10.672-51.926 15.611-51.296 4.938.624 5.955 24.612 2.272 53.57zm44.972-12.079c-7.102 28.96-16.794 51.924-21.661 51.295-4.864-.627-3.053-24.613 4.046-53.57 7.1-28.96 16.795-51.925 21.661-51.295 4.863.626 3.053 24.613-4.046 53.57z" fill-rule="evenodd" clip-rule="evenodd" fill="#f5dfc2"/><path d="M177.52 292.243c-4.901.626-4.431 24.613 1.051 53.57 5.478 28.96 13.888 51.924 18.792 51.295 4.898-.627 4.431-24.613-1.048-53.57-5.486-28.96-13.897-51.925-18.795-51.295zM335.108 292.243c-4.866-.63-14.561 22.335-21.661 51.295-7.099 28.957-8.91 52.943-4.046 53.57 4.867.629 14.559-22.335 21.661-51.295 7.1-28.957 8.91-52.944 4.046-53.57zM283.819 304.322c-4.939-.63-11.929 22.339-15.611 51.296-3.691 28.959-2.671 52.946 2.268 53.575 4.938.624 11.926-22.344 15.615-51.301 3.683-28.958 2.666-52.946-2.272-53.57zM224.413 304.322c-4.936.624-5.953 24.612-2.265 53.57 3.682 28.957 10.672 51.925 15.613 51.301 4.935-.629 5.953-24.616 2.27-53.575-3.69-28.957-10.677-51.926-15.618-51.296z" fill-rule="evenodd" clip-rule="evenodd" fill="#b5a692"/><path d="M358.311 155.512c-1.521 0-3.029.049-4.524.147-3.845.323-8.126-2.114-10.056-6.642-14.511-35.238-49.187-60.048-89.661-60.048-42.031 0-77.808 26.756-91.242 64.162-.341.949-.729 2.789-4.138 2.564a68.39 68.39 0 00-5-.183c-37.754 0-68.36 30.605-68.36 68.359 0 36.724 28.962 66.674 65.29 68.28 1.019.045 2.041.078 3.07.078 18.864 0 35.775-7.815 48.31-20.001 2.567-2.496 5.554-1.264 7-.503 13.465 7.086 28.798 11.101 45.07 11.101 16.97 0 33.191-3.89 46.792-12.027 3.768-2.254 7.414-.324 8.66.946 12.405 12.641 29.68 20.484 48.79 20.484 1.029 0 2.051-.033 3.069-.078 36.328-1.606 65.289-31.556 65.289-68.28-.001-37.753-30.606-68.359-68.359-68.359z" fill="#745643"/></svg>